<?xml version="1.0" standalone="no"?>
<!DOCTYPE svg PUBLIC "-//W3C//DTD SVG 20010904//EN"
 "http://www.w3.org/TR/2001/REC-SVG-20010904/DTD/svg10.dtd">
<svg version="1.0" xmlns="http://www.w3.org/2000/svg"
width="200" height="200" version="1.1" viewBox="0 0 200 200"
 preserveAspectRatio="xMidYMid meet">

<g transform="translate(0.000000,200.000000) scale(0.100000,-0.100000)"
fill="#000000" stroke="none">
<path d="M925 1891 c-25 -5 -31 -13 -42 -56 -35 -132 -27 -120 -93 -143 l-60
-20 -66 54 c-37 30 -72 54 -78 54 -6 0 -28 -12 -49 -26 -28 -19 -37 -30 -32
-42 4 -10 16 -47 27 -84 l21 -67 -31 -38 c-58 -74 -58 -73 -142 -57 -41 8 -81
14 -88 14 -7 0 -22 -21 -35 -46 l-22 -46 69 -63 c68 -62 69 -63 57 -95 -6 -18
-11 -46 -11 -61 0 -33 -3 -35 -100 -75 -80 -32 -87 -41 -75 -100 4 -26 12 -35
33 -40 70 -15 146 -35 150 -39 4 -4 22 -69 28 -105 3 -19 -6 -37 -41 -75 -68
-75 -69 -77 -34 -125 22 -31 35 -40 47 -35 9 4 37 13 62 20 79 22 97 32 163
95 l66 61 -40 61 c-74 116 -96 243 -63 372 60 233 295 388 526 346 88 -15 129
-32 193 -78 207 -148 264 -412 134 -628 -79 -131 -241 -224 -391 -224 -32 0
-48 -4 -48 -13 0 -7 -5 -51 -11 -97 -10 -83 -10 -86 22 -167 l32 -83 41 0 c23
0 46 4 52 8 7 4 19 41 28 82 9 42 20 80 24 86 7 11 96 44 118 44 7 0 42 -25
79 -56 l65 -56 45 29 c31 19 43 33 39 43 -4 8 -10 29 -15 45 -4 17 -13 49 -19
72 -12 41 -12 42 31 93 l44 51 59 -7 c33 -3 72 -10 88 -15 30 -8 41 2 69 63
11 25 8 29 -55 89 -59 55 -66 66 -60 88 4 14 10 44 13 65 7 44 8 44 110 82
l73 27 -7 51 c-3 28 -7 51 -8 52 -1 0 -40 9 -87 20 l-84 20 -22 60 -22 61 59
70 58 69 -25 42 c-14 23 -31 42 -37 42 -7 0 -44 -9 -82 -20 -38 -11 -75 -20
-81 -20 -6 0 -33 20 -60 45 l-50 44 12 73 c19 104 19 104 -28 128 l-41 21 -67
-66 -68 -67 -58 13 c-33 7 -64 16 -69 20 -6 4 -24 44 -40 88 -31 87 -32 87
-100 72z"/>
<path d="M554 515 c-7 -18 3 -35 21 -35 7 0 58 -18 113 -40 107 -43 176 -52
170 -24 -4 21 -8 23 -140 73 -114 43 -155 50 -164 26z"/>
<path d="M511 441 c-26 -17 -4 -33 104 -77 119 -48 199 -59 193 -27 -3 16 -40
32 -201 89 -77 27 -77 27 -96 15z"/>
<path d="M464 346 c-9 -24 -4 -27 127 -75 115 -43 174 -50 174 -22 0 17 -8 21
-127 66 -124 46 -165 53 -174 31z"/>
<path d="M410 260 c-21 -13 -5 -26 61 -49 30 -11 75 -28 101 -39 61 -27 133
-38 143 -22 12 19 -14 35 -133 79 -116 42 -146 48 -172 31z"/>
</g>
</svg>
